<?xml version="1.0" encoding="UTF-8"?>
<svg width="276px" height="30px" viewBox="0 0 276 30" version="1.1" xmlns="http://www.w3.org/2000/svg" xmlns:xlink="http://www.w3.org/1999/xlink">
    <!-- Generator: Sketch 48.1 (47250) - http://www.bohemiancoding.com/sketch -->
    <title>APPLIED AGILE™ Copy</title>
    <desc>Created with Sketch.</desc>
    <defs></defs>
    <g id="Artboard-Copy-3" stroke="none" stroke-width="1" fill="none" fill-rule="evenodd" transform="translate(-391.000000, -54.000000)">
        <path d="M411.675,72.08 L407.355,61.48 L402.875,72.08 L411.675,72.08 Z M415.995,83 L413.675,77.24 L400.875,77.24 L398.475,83 L391.795,83 L404.075,54.92 L410.915,54.92 L422.915,83 L415.995,83 Z M431.555,66.83 L431.555,72.23 L432.995,72.23 C435.155,72.23 436.325,71.18 436.325,69.47 C436.325,67.88 435.215,66.83 433.025,66.83 L431.555,66.83 Z M433.445,76.85 L431.645,76.85 L431.645,83 L425.585,83 L425.585,62 L433.175,62 C438.665,62 442.235,64.43 442.235,69.32 C442.235,74.09 438.665,76.85 433.445,76.85 Z M450.785,66.83 L450.785,72.23 L452.225,72.23 C454.385,72.23 455.555,71.18 455.555,69.47 C455.555,67.88 454.445,66.83 452.255,66.83 L450.785,66.83 Z M452.675,76.85 L450.875,76.85 L450.875,83 L444.815,83 L444.815,62 L452.405,62 C457.895,62 461.465,64.43 461.465,69.32 C461.465,74.09 457.895,76.85 452.675,76.85 Z M464.045,83 L464.045,62 L470.105,62 L470.105,77.57 L478.265,77.57 L478.265,83 L464.045,83 Z M481.205,83 L481.205,62 L487.265,62 L487.265,83 L481.205,83 Z M491.285,83 L491.285,62 L505.595,62 L506.405,67.07 L497.255,67.07 L497.255,70.28 L504.785,70.28 L504.785,74.63 L497.255,74.63 L497.255,77.93 L506.495,77.93 L505.685,83 L491.285,83 Z M517.445,67.22 L515.585,67.22 L515.585,77.78 L517.505,77.78 C521.285,77.78 523.595,75.83 523.595,72.53 C523.595,69.11 521.345,67.22 517.445,67.22 Z M509.525,83 L509.525,62 L517.505,62 C525.545,62 529.805,66.08 529.805,72.47 C529.805,78.68 525.425,83 517.505,83 L509.525,83 Z M560.255,72.08 L555.935,61.48 L551.455,72.08 L560.255,72.08 Z M564.575,83 L562.255,77.24 L549.455,77.24 L547.055,83 L540.375,83 L552.655,54.92 L559.495,54.92 L571.495,83 L564.575,83 Z M591.215,81.17 C588.635,82.4 585.665,83.3 582.425,83.3 C576.035,83.3 571.265,79.37 571.265,72.74 C571.265,65.96 576.215,61.67 583.445,61.67 C586.385,61.67 588.605,62.27 590.705,63.2 L590.705,68.9 C588.485,67.85 586.295,67.1 583.805,67.1 C580.175,67.1 577.505,69.26 577.505,72.65 C577.505,76.13 579.815,78.17 583.505,78.17 C584.315,78.17 585.035,78.11 585.785,77.93 L585.785,75.05 L581.855,75.05 L581.855,71.15 L591.215,71.15 L591.215,81.17 Z M595.115,83 L595.115,62 L601.175,62 L601.175,83 L595.115,83 Z M605.195,83 L605.195,62 L611.255,62 L611.255,77.57 L619.415,77.57 L619.415,83 L605.195,83 Z M622.265,83 L622.265,62 L636.575,62 L637.385,67.07 L628.235,67.07 L628.235,70.28 L635.765,70.28 L635.765,74.63 L628.235,74.63 L628.235,77.93 L637.475,77.93 L636.665,83 L622.265,83 Z M650.165,63.38 L645.485,63.38 L645.485,73.82 L643.985,73.82 L643.985,63.38 L639.305,63.38 L639.305,62 L650.165,62 L650.165,63.38 Z M659.345,73.97 L653.945,63.68 L653.945,73.79 L652.475,73.79 L652.475,62 L654.695,62 L659.525,71.3 L664.355,62 L666.575,62 L666.575,73.79 L665.075,73.79 L665.075,63.68 L659.645,73.97 L659.345,73.97 Z" id="APPLIED-AGILE™-Copy" fill="#FFFFFF"></path>
    </g>
</svg>