<?xml version="1.0" encoding="utf-8"?>
<!-- Generator: Adobe Illustrator 16.0.0, SVG Export Plug-In . SVG Version: 6.00 Build 0)  -->
<!DOCTYPE svg PUBLIC "-//W3C//DTD SVG 1.1//EN" "http://www.w3.org/Graphics/SVG/1.1/DTD/svg11.dtd">
<svg version="1.1" id="Layer_1" xmlns="http://www.w3.org/2000/svg" xmlns:xlink="http://www.w3.org/1999/xlink" x="0px" y="0px"
	 width="491.931px" height="569.154px" viewBox="0 0 491.931 569.154" enable-background="new 0 0 491.931 569.154"
	 xml:space="preserve">
<g>
	<path fill="#FFFFFF" d="M460.761,170.299c-3.786,9.769-17.555,33.91-33.835,33.91h-1.996v-34.955
		c0,0-33.348-98.809-160.311-136.065v16.052c24.105,17.408,34.117,34.745,34.117,34.745S253.635,36.173,147.047,10.64v98.286
		c22.31,13.79,27.962,25.998,27.962,25.998s-42.059-23.987-71.333-27.58l-0.173,42.816l-0.004,2.621l-0.003,20.182
		c-0.178-0.019-0.35-0.055-0.528-0.071c-0.066-0.093-8.511-0.151-8.511-0.151s-1.068,0-2.915,0
		c-0.242-0.004-0.473-0.037-0.715-0.037c-0.236,0-0.474,0.033-0.712,0.037c-9.361,0-9.461,0-25.107,0
		c-15.713,0-28.456-26.629-33.343-38.462c-1.395-3.379-3.601-2.967-5.727,1.473c-11.466,23.945-42.577,101.854,28.268,119.354
		h34.442c0.722,0.041,1.443,0.114,2.178,0.114c0.74,0,1.456-0.073,2.183-0.114h1.448c0,0,0.016-0.025,0.043-0.074
		c21.062-1.863,39.421-19.791,42.794-41.071c0.211-1.342,0.345-2.668,0.41-3.975c0.404,2.831,0.618,5.833,0.618,9.038
		c0,24.778-12.175,46.433-34.905,53.424l-0.005,62.881v24.215c0,0-0.583,17.615,7.247,36.042
		c9.808,23.086,31.592,58.563,74.097,76.6c-27.264-35.874-10.673-103.03-10.673-103.03c-0.046,8.052-9.029,189.359,266.642,189.359
		c-56.143-93.287-39.515-161.646-39.515-161.646c2.051,52.013,23.72,54.616,23.72,54.616v-66.636V274.293l12.796,0.297
		c74.193-15.661,36.564-87.928,26.781-104.563C463.261,167.906,461.702,167.875,460.761,170.299z M405.118,319.724
		c0,0-36.65-5.255-54.574-5.799c-13.301-0.403-66.539-1.033-66.539-1.033l-0.254-0.386c0,0-20.31-27.912-21.691-27.912
		c-1.48,0-24.878,31.077-24.878,31.077l-0.09,0.206l-42.743,3.847V168.398c0,0,17.501-2.208,26.306-11.534
		c5.387-5.701,7.014-12.292,7.821-18.662c0.514-4.051-0.216-9.195,0.967-9.628c1.182-0.433,4.432,3.994,7.963,7.028
		c14.689,12.624,54.502,43.087,100.069,43.087c20.583,0,33.799-6.956,40.268-11.529c3.165-2.24,3.191-4.515,4.715-3.907
		c1.521,0.608,0.722,2.908,2.171,6.62c1.72,4.393,4.455,9.913,8.215,13.078c6.93,5.836,12.275,6.915,12.275,6.915V319.724z"/>
	<path fill="#FFFFFF" d="M261.114,199.187c-4.697,0-8.511,3.343-8.511,7.462v23.139c0,4.119,3.813,7.458,8.511,7.458
		c4.695,0,8.502-3.339,8.502-7.458v-23.139C269.616,202.53,265.81,199.187,261.114,199.187z"/>
	<path fill="#FFFFFF" d="M377.573,207.177c-4.328,0-7.834,2.869-7.834,6.407v19.857c0,3.535,3.506,6.404,7.834,6.404
		c4.325,0,7.831-2.869,7.831-6.404v-19.857C385.404,210.045,381.898,207.177,377.573,207.177z"/>
</g>
</svg>
