<?xml version="1.0" encoding="UTF-8"?>
<svg width="240px" height="336px" viewBox="0 0 240 336" version="1.1" xmlns="http://www.w3.org/2000/svg" xmlns:xlink="http://www.w3.org/1999/xlink" style="background: #FFFFFF;">
    <!-- Generator: Sketch 47.1 (45422) - http://www.bohemiancoding.com/sketch -->
    <title>a-infinity</title>
    <desc>Created with Sketch.</desc>
    <defs></defs>
    <g id="Page-1" stroke="none" stroke-width="1" fill="none" fill-rule="evenodd">
        <g id="a-infinity">
            <path d="M122.982585,147.933633 C134.521826,130.7097 146.549837,122.097863 159.066979,122.097863 C168.650416,122.097863 176.701687,125.979714 183.221031,133.743532 C189.740376,141.50735 193,151.065185 193,162.417323 C193,175.726726 189.430712,186.817728 182.292029,195.690664 C175.153347,204.563599 166.270873,209 155.64434,209 C144.235487,209 131.196992,201.040575 116.528466,185.121485 C106.423482,201.040575 94.8518178,209 81.8131279,209 C71.7081433,209 63.379805,205.199701 56.8278634,197.598988 C50.2759217,189.998275 47,180.293647 47,168.484814 C47,155.697349 50.6507784,144.753139 57.9524447,135.651856 C65.2541111,126.550573 74.0224985,122 84.2578701,122 C97.7529141,122 110.661023,130.644458 122.982585,147.933633 Z M104.891494,170.637795 C94.3301548,156.545486 85.6595561,149.499438 78.8794374,149.499438 C75.1634108,149.499438 72.0993646,151.489294 69.687207,155.469066 C67.2750493,159.448839 66.0689886,164.505031 66.0689886,170.637795 C66.0689886,184.338651 71.3495788,191.188976 81.9109176,191.188976 C85.6921377,191.188976 89.0821462,189.851532 92.0810449,187.176603 C95.0799435,184.501674 99.3500504,178.988793 104.891494,170.637795 Z M134.619558,163.395951 C144.920123,176.444385 153.492933,182.968504 160.338245,182.968504 C169.986876,182.968504 174.811119,175.694111 174.811119,161.145107 C174.811119,155.469038 173.295394,150.706431 170.263898,146.857143 C167.232403,143.007855 163.500134,141.08324 159.066979,141.08324 C154.829405,141.08324 151.129732,142.534856 147.96785,145.438133 C144.805968,148.341409 140.356581,154.327289 134.619558,163.395951 Z" id="∞" fill="#000000"></path>
            <g id="full-everythign" transform="translate(-16.000000, -16.000000)">
                <g id="Background" transform="translate(16.000000, 16.000000)">
                    <g id="border/purp">
                        <path d="M0,0 L240,0 L240,336 L0,336 L0,0 Z M12,12 L12,324 L228,324 L228,12 L12,12 Z" id="border" fill="#7E4296"></path>
                        <g id="Group" stroke-width="1" transform="translate(-16.000000, -16.000000)">
                            <g id="bottom-right" transform="translate(194.000000, 290.000000)">
                                <circle id="Oval-Copy" fill="#7E4296" cx="39" cy="39" r="39"></circle>
                                <path d="M39,69 C44.5977234,69 54.5977234,69 69,69 C69,54.4479716 69,44.4479716 69,39 C69,22.4314575 55.5685425,9 39,9 C22.4314575,9 9,22.4314575 9,39 C9,55.5685425 22.4314575,69 39,69 Z" id="Oval-Copy-3" fill="#FFFFFF"></path>
                            </g>
                            <g id="top-left" transform="translate(39.000000, 39.000000) rotate(180.000000) translate(-39.000000, -39.000000) ">
                                <circle id="Oval-Copy" fill="#7E4296" cx="39" cy="39" r="39"></circle>
                                <path d="M39,69 C44.5977234,69 54.5977234,69 69,69 C69,54.4479716 69,44.4479716 69,39 C69,22.4314575 55.5685425,9 39,9 C22.4314575,9 9,22.4314575 9,39 C9,55.5685425 22.4314575,69 39,69 Z" id="Oval-Copy-3" fill="#FFFFFF"></path>
                            </g>
                        </g>
                    </g>
                </g>
                <g id="number-1" transform="translate(194.000000, 290.000000)" font-size="30" font-family="LucidaGrande-Bold, Lucida Grande" fill="#000000" font-weight="bold">
                    <text id="?">
                        <tspan x="23.7558594" y="52">∞</tspan>
                    </text>
                </g>
                <g id="number-1-copy" transform="translate(41.500000, 41.500000) rotate(180.000000) translate(-41.500000, -41.500000) translate(17.000000, 28.000000)" font-size="30" font-family="LucidaGrande-Bold, Lucida Grande" fill="#000000" font-weight="bold">
                    <text id="?">
                        <tspan x="11.7558594" y="29">∞</tspan>
                    </text>
                </g>
            </g>
        </g>
    </g>
</svg>