<?xml version="1.0" encoding="UTF-8"?>
<svg width="240px" height="336px" viewBox="0 0 240 336" version="1.1" xmlns="http://www.w3.org/2000/svg" xmlns:xlink="http://www.w3.org/1999/xlink">
    <!-- Generator: Sketch 47.1 (45422) - http://www.bohemiancoding.com/sketch -->
    <title>f-100</title>
    <desc>Created with Sketch.</desc>
    <defs>
        <rect id="path-1" x="0" y="0" width="240" height="336" rx="8"></rect>
    </defs>
    <g id="Symbols" stroke="none" stroke-width="1" fill="none" fill-rule="evenodd">
        <g id="f-100">
            <mask id="mask-2" fill="white">
                <use xlink:href="#path-1"></use>
            </mask>
            <use id="Mask" fill="#FFFFFF" xlink:href="#path-1"></use>
            <g id="full" mask="url(#mask-2)">
                <g id="Background">
                    <g id="border/blue">
                        <path d="M0,0 L240,0 L240,336 L0,336 L0,0 Z M12,12 L12,324 L228,324 L228,12 L12,12 Z" id="border" fill="#009AA6"></path>
                        <g id="Group" stroke-width="1" transform="translate(-16.000000, -16.000000)">
                            <g id="bottom-right" transform="translate(194.000000, 290.000000)">
                                <circle id="Oval-Copy" fill="#009AA6" cx="39" cy="39" r="39"></circle>
                                <path d="M39,69 C44.5977234,69 54.5977234,69 69,69 C69,54.4479716 69,44.4479716 69,39 C69,22.4314575 55.5685425,9 39,9 C22.4314575,9 9,22.4314575 9,39 C9,55.5685425 22.4314575,69 39,69 Z" id="Oval-Copy-3" fill="#FFFFFF"></path>
                            </g>
                            <g id="top-left" transform="translate(39.000000, 39.000000) rotate(180.000000) translate(-39.000000, -39.000000) ">
                                <circle id="Oval-Copy" fill="#009AA6" cx="39" cy="39" r="39"></circle>
                                <path d="M39,69 C44.5977234,69 54.5977234,69 69,69 C69,54.4479716 69,44.4479716 69,39 C69,22.4314575 55.5685425,9 39,9 C22.4314575,9 9,22.4314575 9,39 C9,55.5685425 22.4314575,69 39,69 Z" id="Oval-Copy-3" fill="#FFFFFF"></path>
                            </g>
                        </g>
                    </g>
                </g>
                <g id="number-1" transform="translate(214.500000, 310.500000) rotate(180.000000) translate(-214.500000, -310.500000) translate(190.000000, 297.000000)" fill="#000000">
                    <path d="M13.34,21 L13.34,6.8 L13,6.7 L6.88,10.24 L6.88,13.5 L10.24,11.52 L10.24,21 L13.34,21 Z M22.08,21.28 C18.46,21.28 16.12,18.24 16.12,14.02 C16.12,9.82 18.56,6.72 22.12,6.72 C25.68,6.72 28.08,9.76 28.08,13.98 C28.08,18.24 25.62,21.28 22.08,21.28 Z M19.2,13.98 C19.2,16.62 20.3,18.52 22.12,18.52 C23.86,18.52 25,16.7 25,14.02 C25,11.36 23.86,9.48 22.08,9.48 C20.28,9.48 19.2,11.38 19.2,13.98 Z M35.96,21.28 C32.34,21.28 30,18.24 30,14.02 C30,9.82 32.44,6.72 36,6.72 C39.56,6.72 41.96,9.76 41.96,13.98 C41.96,18.24 39.5,21.28 35.96,21.28 Z M33.08,13.98 C33.08,16.62 34.18,18.52 36,18.52 C37.74,18.52 38.88,16.7 38.88,14.02 C38.88,11.36 37.74,9.48 35.96,9.48 C34.16,9.48 33.08,11.38 33.08,13.98 Z" id="?"></path>
                </g>
                <g id="number-1-copy" transform="translate(25.500000, 25.500000) rotate(180.000000) translate(-25.500000, -25.500000) translate(1.000000, 12.000000)" fill="#000000">
                    <path d="M13.34,21 L13.34,6.8 L13,6.7 L6.88,10.24 L6.88,13.5 L10.24,11.52 L10.24,21 L13.34,21 Z M22.08,21.28 C18.46,21.28 16.12,18.24 16.12,14.02 C16.12,9.82 18.56,6.72 22.12,6.72 C25.68,6.72 28.08,9.76 28.08,13.98 C28.08,18.24 25.62,21.28 22.08,21.28 Z M19.2,13.98 C19.2,16.62 20.3,18.52 22.12,18.52 C23.86,18.52 25,16.7 25,14.02 C25,11.36 23.86,9.48 22.08,9.48 C20.28,9.48 19.2,11.38 19.2,13.98 Z M35.96,21.28 C32.34,21.28 30,18.24 30,14.02 C30,9.82 32.44,6.72 36,6.72 C39.56,6.72 41.96,9.76 41.96,13.98 C41.96,18.24 39.5,21.28 35.96,21.28 Z M33.08,13.98 C33.08,16.62 34.18,18.52 36,18.52 C37.74,18.52 38.88,16.7 38.88,14.02 C38.88,11.36 37.74,9.48 35.96,9.48 C34.16,9.48 33.08,11.38 33.08,13.98 Z" id="?" transform="translate(24.420000, 13.990000) rotate(180.000000) translate(-24.420000, -13.990000) "></path>
                </g>
            </g>
            <path d="M64.9,198 L64.9,126.9 L63.4,126.3 L29.7,144.9 L29.7,165.2 L45.4,156.4 L45.4,198 L64.9,198 Z M107.8,199.4 C89.2,199.4 76.6,184.9 76.6,163.1 C76.6,141.6 89.8,126.6 108,126.6 C126.2,126.6 139.2,141.1 139.2,162.9 C139.2,184.7 125.8,199.4 107.8,199.4 Z M95.7,162.9 C95.7,174.3 100,182.3 108,182.3 C115.5,182.3 120,174.7 120,163.1 C120,151.6 115.5,143.7 107.8,143.7 C100,143.7 95.7,151.7 95.7,162.9 Z M178.4,199.4 C159.8,199.4 147.2,184.9 147.2,163.1 C147.2,141.6 160.4,126.6 178.6,126.6 C196.8,126.6 209.8,141.1 209.8,162.9 C209.8,184.7 196.4,199.4 178.4,199.4 Z M166.3,162.9 C166.3,174.3 170.6,182.3 178.6,182.3 C186.1,182.3 190.6,174.7 190.6,163.1 C190.6,151.6 186.1,143.7 178.4,143.7 C170.6,143.7 166.3,151.7 166.3,162.9 Z" id="100" fill="#000000" mask="url(#mask-2)"></path>
        </g>
    </g>
</svg>