<?xml version="1.0" encoding="UTF-8"?>
<svg width="240px" height="336px" viewBox="0 0 240 336" version="1.1" xmlns="http://www.w3.org/2000/svg" xmlns:xlink="http://www.w3.org/1999/xlink">
    <!-- Generator: Sketch 47.1 (45422) - http://www.bohemiancoding.com/sketch -->
    <title>f-13</title>
    <desc>Created with Sketch.</desc>
    <defs>
        <rect id="path-1" x="0" y="0" width="240" height="336" rx="8"></rect>
    </defs>
    <g id="Symbols" stroke="none" stroke-width="1" fill="none" fill-rule="evenodd">
        <g id="f-13">
            <mask id="mask-2" fill="white">
                <use xlink:href="#path-1"></use>
            </mask>
            <use id="Mask" fill="#FFFFFF" xlink:href="#path-1"></use>
            <g id="full" mask="url(#mask-2)">
                <g transform="translate(-16.000000, -16.000000)">
                    <g id="Background" transform="translate(16.000000, 16.000000)">
                        <g id="border/blue">
                            <path d="M0,0 L240,0 L240,336 L0,336 L0,0 Z M12,12 L12,324 L228,324 L228,12 L12,12 Z" id="border" fill="#009AA6"></path>
                            <g id="Group" stroke-width="1" transform="translate(-16.000000, -16.000000)">
                                <g id="bottom-right" transform="translate(194.000000, 290.000000)">
                                    <circle id="Oval-Copy" fill="#009AA6" cx="39" cy="39" r="39"></circle>
                                    <path d="M39,69 C44.5977234,69 54.5977234,69 69,69 C69,54.4479716 69,44.4479716 69,39 C69,22.4314575 55.5685425,9 39,9 C22.4314575,9 9,22.4314575 9,39 C9,55.5685425 22.4314575,69 39,69 Z" id="Oval-Copy-3" fill="#FFFFFF"></path>
                                </g>
                                <g id="top-left" transform="translate(39.000000, 39.000000) rotate(180.000000) translate(-39.000000, -39.000000) ">
                                    <circle id="Oval-Copy" fill="#009AA6" cx="39" cy="39" r="39"></circle>
                                    <path d="M39,69 C44.5977234,69 54.5977234,69 69,69 C69,54.4479716 69,44.4479716 69,39 C69,22.4314575 55.5685425,9 39,9 C22.4314575,9 9,22.4314575 9,39 C9,55.5685425 22.4314575,69 39,69 Z" id="Oval-Copy-3" fill="#FFFFFF"></path>
                                </g>
                            </g>
                        </g>
                    </g>
                    <g id="number-1" transform="translate(206.000000, 313.000000)">
                        <path d="M20.15,24 L20.15,2.7 L19.64,2.55 L10.46,7.86 L10.46,12.75 L15.5,9.78 L15.5,24 L20.15,24 Z M30.98,24.33 C34.94,24.33 38.39,22.02 38.39,18.33 C38.39,15.9 36.92,13.98 34.07,13.05 C36.74,11.82 38,10.05 38,7.98 C38,4.8 35.48,2.67 31.34,2.67 C28.43,2.67 26.36,3.63 24.71,4.71 L24.71,9.03 L24.77,9.03 C26.54,7.71 28.61,6.6 30.65,6.6 C32.33,6.6 33.32,7.44 33.32,8.61 C33.32,9.93 32.45,10.74 27.32,12.75 L27.32,14.13 C32.51,15.39 33.74,16.35 33.74,18 C33.74,19.47 32.36,20.4 30.5,20.4 C28.4,20.4 26.3,19.47 24.2,17.94 L24.14,17.97 L24.71,22.62 C26.51,23.67 28.22,24.33 30.98,24.33 Z" id="?" fill="#000000" transform="translate(24.425000, 13.440000) rotate(180.000000) translate(-24.425000, -13.440000) "></path>
                    </g>
                    <g id="number-1-copy" transform="translate(17.000000, 28.000000)">
                        <path d="M20.15,24 L20.15,2.7 L19.64,2.55 L10.46,7.86 L10.46,12.75 L15.5,9.78 L15.5,24 L20.15,24 Z M30.98,24.33 C34.94,24.33 38.39,22.02 38.39,18.33 C38.39,15.9 36.92,13.98 34.07,13.05 C36.74,11.82 38,10.05 38,7.98 C38,4.8 35.48,2.67 31.34,2.67 C28.43,2.67 26.36,3.63 24.71,4.71 L24.71,9.03 L24.77,9.03 C26.54,7.71 28.61,6.6 30.65,6.6 C32.33,6.6 33.32,7.44 33.32,8.61 C33.32,9.93 32.45,10.74 27.32,12.75 L27.32,14.13 C32.51,15.39 33.74,16.35 33.74,18 C33.74,19.47 32.36,20.4 30.5,20.4 C28.4,20.4 26.3,19.47 24.2,17.94 L24.14,17.97 L24.71,22.62 C26.51,23.67 28.22,24.33 30.98,24.33 Z" id="?" fill="#000000"></path>
                    </g>
                </g>
            </g>
            <path d="M107,203 L107,131.9 L105.5,131.3 L71.8,149.9 L71.8,170.2 L87.5,161.4 L87.5,203 L107,203 Z M142.4,204.1 C156.3,204.1 168,196.6 168,184 C168,175.6 163,169.8 153.9,166.7 C162.7,162.8 167,157.2 167,150 C167,139.1 157.8,132 143.4,132 C133.3,132 125.3,135.3 119.8,138.9 L119.8,155.7 L120,155.7 C126.1,151.4 133.2,147.8 139.9,147.8 C145,147.8 147.6,149.9 147.6,152.9 C147.6,156 145.9,157.8 128.3,165.3 L128.3,170.5 C146.2,176 148.8,178.2 148.8,182.3 C148.8,186 145.2,188.3 139.9,188.3 C133.3,188.3 125.3,184.9 118.4,180.2 L118.2,180.3 L120.2,198.3 C126.6,202 133.1,204.1 142.4,204.1 Z" id="13" fill="#000000" mask="url(#mask-2)"></path>
        </g>
    </g>
</svg>