<?xml version="1.0" encoding="UTF-8"?>
<svg width="240px" height="336px" viewBox="0 0 240 336" version="1.1" xmlns="http://www.w3.org/2000/svg" xmlns:xlink="http://www.w3.org/1999/xlink">
    <!-- Generator: Sketch 47.1 (45422) - http://www.bohemiancoding.com/sketch -->
    <title>f-3</title>
    <desc>Created with Sketch.</desc>
    <defs>
        <rect id="path-1" x="0" y="0" width="240" height="336" rx="8"></rect>
    </defs>
    <g id="Symbols" stroke="none" stroke-width="1" fill="none" fill-rule="evenodd">
        <g id="f-3">
            <mask id="mask-2" fill="white">
                <use xlink:href="#path-1"></use>
            </mask>
            <use id="Mask" fill="#FFFFFF" xlink:href="#path-1"></use>
            <g id="full" mask="url(#mask-2)">
                <g id="Background">
                    <g id="border/blue">
                        <path d="M0,0 L240,0 L240,336 L0,336 L0,0 Z M12,12 L12,324 L228,324 L228,12 L12,12 Z" id="border" fill="#009AA6"></path>
                        <g id="Group" stroke-width="1" transform="translate(-16.000000, -16.000000)">
                            <g id="bottom-right" transform="translate(194.000000, 290.000000)">
                                <circle id="Oval-Copy" fill="#009AA6" cx="39" cy="39" r="39"></circle>
                                <path d="M39,69 C44.5977234,69 54.5977234,69 69,69 C69,54.4479716 69,44.4479716 69,39 C69,22.4314575 55.5685425,9 39,9 C22.4314575,9 9,22.4314575 9,39 C9,55.5685425 22.4314575,69 39,69 Z" id="Oval-Copy-3" fill="#FFFFFF"></path>
                            </g>
                            <g id="top-left" transform="translate(39.000000, 39.000000) rotate(180.000000) translate(-39.000000, -39.000000) ">
                                <circle id="Oval-Copy" fill="#009AA6" cx="39" cy="39" r="39"></circle>
                                <path d="M39,69 C44.5977234,69 54.5977234,69 69,69 C69,54.4479716 69,44.4479716 69,39 C69,22.4314575 55.5685425,9 39,9 C22.4314575,9 9,22.4314575 9,39 C9,55.5685425 22.4314575,69 39,69 Z" id="Oval-Copy-3" fill="#FFFFFF"></path>
                            </g>
                        </g>
                    </g>
                </g>
                <g id="number-1" transform="translate(190.000000, 297.000000)" fill="#000000">
                    <path d="M24.17,24.33 C28.13,24.33 31.58,22.02 31.58,18.33 C31.58,15.9 30.11,13.98 27.26,13.05 C29.93,11.82 31.19,10.05 31.19,7.98 C31.19,4.8 28.67,2.67 24.53,2.67 C21.62,2.67 19.55,3.63 17.9,4.71 L17.9,9.03 L17.96,9.03 C19.73,7.71 21.8,6.6 23.84,6.6 C25.52,6.6 26.51,7.44 26.51,8.61 C26.51,9.93 25.64,10.74 20.51,12.75 L20.51,14.13 C25.7,15.39 26.93,16.35 26.93,18 C26.93,19.47 25.55,20.4 23.69,20.4 C21.59,20.4 19.49,19.47 17.39,17.94 L17.33,17.97 L17.9,22.62 C19.7,23.67 21.41,24.33 24.17,24.33 Z" id="?" transform="translate(24.455000, 13.500000) rotate(180.000000) translate(-24.455000, -13.500000) "></path>
                </g>
                <g id="number-1-copy" transform="translate(18.000000, 14.000000)" fill="#000000">
                    <path d="M7.17,22.33 C11.13,22.33 14.58,20.02 14.58,16.33 C14.58,13.9 13.11,11.98 10.26,11.05 C12.93,9.82 14.19,8.05 14.19,5.98 C14.19,2.8 11.67,0.67 7.53,0.67 C4.62,0.67 2.55,1.63 0.9,2.71 L0.9,7.03 L0.96,7.03 C2.73,5.71 4.8,4.6 6.84,4.6 C8.52,4.6 9.51,5.44 9.51,6.61 C9.51,7.93 8.64,8.74 3.51,10.75 L3.51,12.13 C8.7,13.39 9.93,14.35 9.93,16 C9.93,17.47 8.55,18.4 6.69,18.4 C4.59,18.4 2.49,17.47 0.39,15.94 L0.33,15.97 L0.9,20.62 C2.7,21.67 4.41,22.33 7.17,22.33 Z" id="?"></path>
                </g>
            </g>
            <path d="M119.1,204.1 C133,204.1 144.7,196.6 144.7,184 C144.7,175.6 139.7,169.8 130.6,166.7 C139.4,162.8 143.7,157.2 143.7,150 C143.7,139.1 134.5,132 120.1,132 C110,132 102,135.3 96.5,138.9 L96.5,155.7 L96.7,155.7 C102.8,151.4 109.9,147.8 116.6,147.8 C121.7,147.8 124.3,149.9 124.3,152.9 C124.3,156 122.6,157.8 105,165.3 L105,170.5 C122.9,176 125.5,178.2 125.5,182.3 C125.5,186 121.9,188.3 116.6,188.3 C110,188.3 102,184.9 95.1,180.2 L94.9,180.3 L96.9,198.3 C103.3,202 109.8,204.1 119.1,204.1 Z" id="3" fill="#000000" mask="url(#mask-2)"></path>
        </g>
    </g>
</svg>