<?xml version="1.0" encoding="UTF-8"?>
<svg width="240px" height="336px" viewBox="0 0 240 336" version="1.1" xmlns="http://www.w3.org/2000/svg" xmlns:xlink="http://www.w3.org/1999/xlink">
    <!-- Generator: Sketch 47.1 (45422) - http://www.bohemiancoding.com/sketch -->
    <title>f-5</title>
    <desc>Created with Sketch.</desc>
    <defs>
        <rect id="path-1" x="0" y="0" width="240" height="336" rx="8"></rect>
    </defs>
    <g id="Symbols" stroke="none" stroke-width="1" fill="none" fill-rule="evenodd">
        <g id="f-5">
            <mask id="mask-2" fill="white">
                <use xlink:href="#path-1"></use>
            </mask>
            <use id="Mask" fill="#FFFFFF" xlink:href="#path-1"></use>
            <g id="full" mask="url(#mask-2)">
                <g transform="translate(-16.000000, -16.000000)">
                    <g id="Background" transform="translate(16.000000, 16.000000)">
                        <g id="border/blue">
                            <path d="M0,0 L240,0 L240,336 L0,336 L0,0 Z M12,12 L12,324 L228,324 L228,12 L12,12 Z" id="border" fill="#009AA6"></path>
                            <g id="Group" stroke-width="1" transform="translate(-16.000000, -16.000000)">
                                <g id="bottom-right" transform="translate(194.000000, 290.000000)">
                                    <circle id="Oval-Copy" fill="#009AA6" cx="39" cy="39" r="39"></circle>
                                    <path d="M39,69 C44.5977234,69 54.5977234,69 69,69 C69,54.4479716 69,44.4479716 69,39 C69,22.4314575 55.5685425,9 39,9 C22.4314575,9 9,22.4314575 9,39 C9,55.5685425 22.4314575,69 39,69 Z" id="Oval-Copy-3" fill="#FFFFFF"></path>
                                </g>
                                <g id="top-left" transform="translate(39.000000, 39.000000) rotate(180.000000) translate(-39.000000, -39.000000) ">
                                    <circle id="Oval-Copy" fill="#009AA6" cx="39" cy="39" r="39"></circle>
                                    <path d="M39,69 C44.5977234,69 54.5977234,69 69,69 C69,54.4479716 69,44.4479716 69,39 C69,22.4314575 55.5685425,9 39,9 C22.4314575,9 9,22.4314575 9,39 C9,55.5685425 22.4314575,69 39,69 Z" id="Oval-Copy-3" fill="#FFFFFF"></path>
                                </g>
                            </g>
                        </g>
                    </g>
                    <g id="number-1" transform="translate(206.000000, 313.000000)">
                        <path d="M23.75,24.36 C28.82,24.36 31.97,21.36 31.97,17.22 C31.97,12.99 29.03,10.65 24.47,10.65 C23.54,10.65 22.61,10.74 21.89,10.92 L22.19,7.05 L30.98,7.05 L30.98,3 L18.68,3 L17.9,14.79 L18.29,15 C19.88,14.49 21.53,14.13 23.12,14.13 C25.82,14.13 27.26,15.3 27.26,17.25 C27.26,19.17 25.7,20.46 23.39,20.46 C21.56,20.46 19.67,19.92 17.33,18.81 L17.78,23.1 C19.28,23.82 21.29,24.36 23.75,24.36 Z" id="?" fill="#000000" transform="translate(24.650000, 13.680000) rotate(180.000000) translate(-24.650000, -13.680000) "></path>
                    </g>
                    <g id="number-1-copy" transform="translate(17.000000, 28.000000)">
                        <path d="M23.75,24.36 C28.82,24.36 31.97,21.36 31.97,17.22 C31.97,12.99 29.03,10.65 24.47,10.65 C23.54,10.65 22.61,10.74 21.89,10.92 L22.19,7.05 L30.98,7.05 L30.98,3 L18.68,3 L17.9,14.79 L18.29,15 C19.88,14.49 21.53,14.13 23.12,14.13 C25.82,14.13 27.26,15.3 27.26,17.25 C27.26,19.17 25.7,20.46 23.39,20.46 C21.56,20.46 19.67,19.92 17.33,18.81 L17.78,23.1 C19.28,23.82 21.29,24.36 23.75,24.36 Z" id="?" fill="#000000"></path>
                    </g>
                </g>
            </g>
            <path d="M117.3,204.2 C134.8,204.2 146.1,194.7 146.1,180.2 C146.1,165.7 136,158.3 120,158.3 C117.4,158.3 114.6,158.5 112.3,158.9 L113.1,149.5 L142.7,149.5 L142.7,133 L99.2,133 L96.7,173.6 L97.8,174.1 C103.6,172.5 108.6,171.6 113.8,171.6 C122.3,171.6 126.4,174.7 126.4,180 C126.4,185.3 122,188.4 115.6,188.4 C109.5,188.4 103.4,186.8 95.2,183.3 L96.7,200.1 C101.7,202.3 108.7,204.2 117.3,204.2 Z" id="5" fill="#000000" mask="url(#mask-2)"></path>
        </g>
    </g>
</svg>