<?xml version="1.0" encoding="UTF-8"?>
<svg width="240px" height="336px" viewBox="0 0 240 336" version="1.1" xmlns="http://www.w3.org/2000/svg" xmlns:xlink="http://www.w3.org/1999/xlink">
    <!-- Generator: Sketch 47.1 (45422) - http://www.bohemiancoding.com/sketch -->
    <title>f-8</title>
    <desc>Created with Sketch.</desc>
    <defs>
        <rect id="path-1" x="0" y="0" width="240" height="336" rx="8"></rect>
    </defs>
    <g id="Symbols" stroke="none" stroke-width="1" fill="none" fill-rule="evenodd">
        <g id="f-8">
            <mask id="mask-2" fill="white">
                <use xlink:href="#path-1"></use>
            </mask>
            <use id="Mask" fill="#FFFFFF" xlink:href="#path-1"></use>
            <g id="full" mask="url(#mask-2)">
                <g transform="translate(-16.000000, -16.000000)">
                    <g id="Background" transform="translate(16.000000, 16.000000)">
                        <g id="border/blue">
                            <path d="M0,0 L240,0 L240,336 L0,336 L0,0 Z M12,12 L12,324 L228,324 L228,12 L12,12 Z" id="border" fill="#009AA6"></path>
                            <g id="Group" stroke-width="1" transform="translate(-16.000000, -16.000000)">
                                <g id="bottom-right" transform="translate(194.000000, 290.000000)">
                                    <circle id="Oval-Copy" fill="#009AA6" cx="39" cy="39" r="39"></circle>
                                    <path d="M39,69 C44.5977234,69 54.5977234,69 69,69 C69,54.4479716 69,44.4479716 69,39 C69,22.4314575 55.5685425,9 39,9 C22.4314575,9 9,22.4314575 9,39 C9,55.5685425 22.4314575,69 39,69 Z" id="Oval-Copy-3" fill="#FFFFFF"></path>
                                </g>
                                <g id="top-left" transform="translate(39.000000, 39.000000) rotate(180.000000) translate(-39.000000, -39.000000) ">
                                    <circle id="Oval-Copy" fill="#009AA6" cx="39" cy="39" r="39"></circle>
                                    <path d="M39,69 C44.5977234,69 54.5977234,69 69,69 C69,54.4479716 69,44.4479716 69,39 C69,22.4314575 55.5685425,9 39,9 C22.4314575,9 9,22.4314575 9,39 C9,55.5685425 22.4314575,69 39,69 Z" id="Oval-Copy-3" fill="#FFFFFF"></path>
                                </g>
                            </g>
                        </g>
                    </g>
                    <g id="number-1" transform="translate(206.000000, 313.000000)">
                        <path d="M24.47,24.36 C19.55,24.36 16.34,21.99 16.34,18.42 C16.34,16.02 17.75,14.25 20,13.29 C18.05,12.3 16.97,10.59 16.97,8.49 C16.97,5.16 19.88,2.64 24.53,2.64 C29.18,2.64 32.03,5.16 32.03,8.49 C32.03,10.59 30.92,12.3 29,13.29 C31.22,14.25 32.63,15.99 32.63,18.42 C32.63,21.96 29.27,24.36 24.47,24.36 Z M21.44,8.88 C21.44,10.5 22.7,11.73 24.53,11.73 C26.33,11.73 27.56,10.5 27.56,8.88 C27.56,7.35 26.39,6.15 24.47,6.15 C22.52,6.15 21.44,7.35 21.44,8.88 Z M20.99,17.88 C20.99,19.65 22.43,20.85 24.53,20.85 C26.63,20.85 28.01,19.65 28.01,17.88 C28.01,16.2 26.39,14.97 24.47,14.97 C22.55,14.97 20.99,16.2 20.99,17.88 Z" id="?" fill="#000000" transform="translate(24.485000, 13.500000) rotate(180.000000) translate(-24.485000, -13.500000) "></path>
                    </g>
                    <g id="number-1-copy" transform="translate(17.000000, 28.000000)">
                        <path d="M24.47,24.36 C19.55,24.36 16.34,21.99 16.34,18.42 C16.34,16.02 17.75,14.25 20,13.29 C18.05,12.3 16.97,10.59 16.97,8.49 C16.97,5.16 19.88,2.64 24.53,2.64 C29.18,2.64 32.03,5.16 32.03,8.49 C32.03,10.59 30.92,12.3 29,13.29 C31.22,14.25 32.63,15.99 32.63,18.42 C32.63,21.96 29.27,24.36 24.47,24.36 Z M21.44,8.88 C21.44,10.5 22.7,11.73 24.53,11.73 C26.33,11.73 27.56,10.5 27.56,8.88 C27.56,7.35 26.39,6.15 24.47,6.15 C22.52,6.15 21.44,7.35 21.44,8.88 Z M20.99,17.88 C20.99,19.65 22.43,20.85 24.53,20.85 C26.63,20.85 28.01,19.65 28.01,17.88 C28.01,16.2 26.39,14.97 24.47,14.97 C22.55,14.97 20.99,16.2 20.99,17.88 Z" id="?" fill="#000000"></path>
                    </g>
                </g>
            </g>
            <path d="M119.95,204.2 C102.15,204.2 91.25,196.6 91.25,184.4 C91.25,176.2 95.95,170.5 103.65,167.3 C96.95,164.1 93.35,158.5 93.35,151.3 C93.35,139.9 103.25,131.8 120.05,131.8 C136.95,131.8 146.75,139.9 146.75,151.3 C146.75,158.4 143.15,164 136.45,167.3 C144.15,170.4 148.75,176.2 148.75,184.4 C148.75,196.5 137.05,204.2 119.95,204.2 Z M111.85,153.3 C111.85,157.9 115.05,161.3 120.15,161.3 C125.05,161.3 128.25,157.9 128.25,153.3 C128.25,149 125.15,145.6 119.95,145.6 C114.65,145.6 111.85,149 111.85,153.3 Z M110.65,182 C110.65,186.8 114.25,190.4 120.15,190.4 C125.95,190.4 129.35,186.8 129.35,182 C129.35,177.4 125.35,173.7 119.95,173.7 C114.65,173.7 110.65,177.4 110.65,182 Z" id="8" fill="#000000" mask="url(#mask-2)"></path>
        </g>
    </g>
</svg>