<?xml version="1.0" encoding="UTF-8"?>
<svg width="240px" height="336px" viewBox="0 0 240 336" version="1.1" xmlns="http://www.w3.org/2000/svg" xmlns:xlink="http://www.w3.org/1999/xlink" style="background: #FFFFFF;">
    <!-- Generator: Sketch 47.1 (45422) - http://www.bohemiancoding.com/sketch -->
    <title>coffee break</title>
    <desc>Created with Sketch.</desc>
    <defs>
        <ellipse id="path-1" cx="41" cy="13.5" rx="41" ry="12.5"></ellipse>
        <ellipse id="path-3" cx="36.5" cy="11" rx="36.5" ry="11"></ellipse>
    </defs>
    <g id="cards" stroke="none" stroke-width="1" fill="none" fill-rule="evenodd">
        <g id="coffee-break">
            <path d="M0,0 L240,0 L240,336 L0,336 L0,0 Z M12,12 L12,324 L228,324 L228,12 L12,12 Z" id="Combined-Shape"></path>
            <text font-family="Mallory-Light, Mallory" font-size="15" font-weight="300" letter-spacing="-0.300000012" fill="#444444">
                <tspan x="77.9225001" y="245">coffee break</tspan>
            </text>
            <g id="Group" transform="translate(77.000000, 137.000000)">
                <path d="M0.0659983858,13.2152648 C0.0221966561,12.978544 0,12.7400623 0,12.5 C0,5.59644063 18.3563253,0 41,0 C63.6436747,0 82,5.59644063 82,12.5 C82,12.7400623 81.9778033,12.978544 81.9340016,13.2152648 C81.9758666,13.2836054 82,13.3639844 82,13.45 C82,22.4147728 82,31.3795456 82,40.3443184 C82,59.3461271 61.0097675,66.1600741 47.5094965,67.6886367 C45.0975411,67.6886367 37.4990406,67.6886367 35.1411135,67.6886367 C21.6644844,66.2544713 -4.97379915e-14,59.5628903 -4.97379915e-14,40.3443184 C-4.97379915e-14,31.3795456 -4.97379915e-14,22.4147728 -4.69069228e-14,13.45 C-4.69174567e-14,13.3639844 0.0241333674,13.2836054 0.0659983858,13.2152648 Z" id="Oval" fill="#F0F0F0"></path>
                <path d="M86.5,38 C81.2532949,38 77,32.627417 77,26 C77,19.372583 81.2532949,14 86.5,14 C91.7467051,14 96,19.372583 96,26 C96,32.627417 91.7467051,38 86.5,38 Z M85.5,33 C88.5375661,33 91,29.8659932 91,26 C91,22.1340068 88.5375661,19 85.5,19 C82.4624339,19 80,22.1340068 80,26 C80,29.8659932 82.4624339,33 85.5,33 Z" id="Combined-Shape" fill="#DEDEDE"></path>
                <path d="M48,67.6911186 C85.7860978,62.3674865 82.0627195,43.0732128 82.0627195,33.0596644 C82.0627195,25.4355568 82.3918008,15.176766 82.0627195,14.0077431 C81.9877836,13.7415418 74.1954593,20.4212087 70.8282731,21.3960336 C63.1798895,23.6102963 54.0171172,25.2729334 54.1803627,25.4276353 C57.1403287,28.2326886 55.0124239,58.4441296 48,67.6911186 Z" id="Path" fill="#DEDEDE"></path>
                <mask id="mask-2" fill="white">
                    <use xlink:href="#path-1"></use>
                </mask>
                <use id="rim" fill="#F0F0F0" xlink:href="#path-1"></use>
                <g id="Oval-Copy-2" mask="url(#mask-2)">
                    <g transform="translate(5.000000, 2.000000)">
                        <mask id="mask-4" fill="white">
                            <use xlink:href="#path-3"></use>
                        </mask>
                        <use id="Mask" stroke="none" fill="#DEDEDE" fill-rule="evenodd" xlink:href="#path-3"></use>
                        <ellipse id="Oval-Copy-2" stroke="none" fill="#795713" fill-rule="evenodd" mask="url(#mask-4)" cx="36.5" cy="16" rx="36.5" ry="11"></ellipse>
                    </g>
                </g>
            </g>
            <path d="M117.991851,37 C115.047655,42.3173508 113.722562,46.2996807 114.016571,48.9469897 C114.971999,57.5498207 120.080631,54.3775731 120.080031,63.101908 C120.079102,76.6056331 114.695535,69.7785521 113.168457,80.9587758 C111.91015,90.1712375 118.083087,96.0310892 119.02803,104.367063 C119.657992,109.924379 119.07333,117.135358 117.274044,126 C124.267767,117.332017 127.489715,110.121038 126.939887,104.367063 C126.157672,96.1811505 118.56264,88.899311 119.02803,83.5756339 C119.49342,78.2519567 125.829458,74.2487568 124.710642,63.101908 C124.104275,57.060621 116.903555,52.4714641 115.956089,48.9469897 C115.324445,46.5973401 116.003032,42.6150102 117.991851,37 Z" id="Line" fill="#E9E8E8"></path>
            <rect id="Rectangle" stroke="#FFFFFF" x="0.5" y="0.5" width="239" height="335"></rect>
        </g>
    </g>
</svg>