<?xml version="1.0" encoding="UTF-8"?>
<svg width="240px" height="336px" viewBox="0 0 240 336" version="1.1" xmlns="http://www.w3.org/2000/svg" xmlns:xlink="http://www.w3.org/1999/xlink">
    <!-- Generator: Sketch 47.1 (45422) - http://www.bohemiancoding.com/sketch -->
    <title>f-half</title>
    <desc>Created with Sketch.</desc>
    <defs>
        <rect id="path-1" x="0" y="0" width="240" height="336" rx="8"></rect>
    </defs>
    <g id="Symbols" stroke="none" stroke-width="1" fill="none" fill-rule="evenodd">
        <g id="f-half">
            <mask id="mask-2" fill="white">
                <use xlink:href="#path-1"></use>
            </mask>
            <use id="Mask" fill="#FFFFFF" xlink:href="#path-1"></use>
            <g id="full" mask="url(#mask-2)">
                <g id="Background">
                    <g id="border/blue">
                        <path d="M0,0 L240,0 L240,336 L0,336 L0,0 Z M12,12 L12,324 L228,324 L228,12 L12,12 Z" id="border" fill="#009AA6"></path>
                        <g id="Group" stroke-width="1" transform="translate(-16.000000, -16.000000)">
                            <g id="bottom-right" transform="translate(194.000000, 290.000000)">
                                <circle id="Oval-Copy" fill="#009AA6" cx="39" cy="39" r="39"></circle>
                                <path d="M39,69 C44.5977234,69 54.5977234,69 69,69 C69,54.4479716 69,44.4479716 69,39 C69,22.4314575 55.5685425,9 39,9 C22.4314575,9 9,22.4314575 9,39 C9,55.5685425 22.4314575,69 39,69 Z" id="Oval-Copy-3" fill="#FFFFFF"></path>
                            </g>
                            <g id="top-left" transform="translate(39.000000, 39.000000) rotate(180.000000) translate(-39.000000, -39.000000) ">
                                <circle id="Oval-Copy" fill="#009AA6" cx="39" cy="39" r="39"></circle>
                                <path d="M39,69 C44.5977234,69 54.5977234,69 69,69 C69,54.4479716 69,44.4479716 69,39 C69,22.4314575 55.5685425,9 39,9 C22.4314575,9 9,22.4314575 9,39 C9,55.5685425 22.4314575,69 39,69 Z" id="Oval-Copy-3" fill="#FFFFFF"></path>
                            </g>
                        </g>
                    </g>
                </g>
                <g id="number-1" transform="translate(190.000000, 297.000000)" fill="#000000">
                    <path d="M18.695,15.54 L15.425,15.54 L15.425,7.53 L12.215,9.3 L12.215,6.06 L18.395,2.7 L18.695,2.79 L18.695,15.54 Z M15.245,24.06 L22.865,13.05 L29.465,2.94 L31.985,2.94 L24.365,13.95 L17.765,24.06 L15.245,24.06 Z M27.485,24 L27.245,22.47 L31.565,17.76 C32.525,16.68 32.945,16.08 32.945,15.36 C32.945,14.67 32.465,14.07 31.565,14.07 C30.335,14.07 29.135,14.91 27.785,16.38 L27.725,16.38 L27.455,13.17 C28.535,12.09 29.945,11.25 32.015,11.25 C34.715,11.25 36.215,12.81 36.215,14.91 C36.215,16.38 35.615,17.46 34.115,19.05 L31.985,21.33 L36.935,21.33 L35.975,24 L27.485,24 Z" id="?" transform="translate(24.575000, 13.380000) rotate(180.000000) translate(-24.575000, -13.380000) "></path>
                </g>
                <g id="number-1-copy" transform="translate(13.000000, 14.000000)" fill="#000000">
                    <path d="M6.695,13.54 L3.425,13.54 L3.425,5.53 L0.215,7.3 L0.215,4.06 L6.395,0.7 L6.695,0.79 L6.695,13.54 Z M3.245,22.06 L10.865,11.05 L17.465,0.94 L19.985,0.94 L12.365,11.95 L5.765,22.06 L3.245,22.06 Z M15.485,22 L15.245,20.47 L19.565,15.76 C20.525,14.68 20.945,14.08 20.945,13.36 C20.945,12.67 20.465,12.07 19.565,12.07 C18.335,12.07 17.135,12.91 15.785,14.38 L15.725,14.38 L15.455,11.17 C16.535,10.09 17.945,9.25 20.015,9.25 C22.715,9.25 24.215,10.81 24.215,12.91 C24.215,14.38 23.615,15.46 22.115,17.05 L19.985,19.33 L24.935,19.33 L23.975,22 L15.485,22 Z" id="?"></path>
                </g>
            </g>
            <path d="M101.05,175.2 L87.85,175.2 L87.85,151 L77.95,156.3 L77.95,143.5 L100.25,131.9 L101.05,132.3 L101.05,175.2 Z M89.15,203.2 L114.55,166.5 L136.55,132.8 L145.15,132.8 L119.75,169.5 L97.75,203.2 L89.15,203.2 Z M129.55,203 L128.75,196.1 L143.15,181.3 C145.95,178.3 146.95,176.5 146.95,174.7 C146.95,172.8 145.85,171.3 143.35,171.3 C139.65,171.3 135.55,173.8 130.35,178.8 L130.25,178.8 L129.45,166.3 C133.05,163 137.95,160.1 145.65,160.1 C155.45,160.1 160.25,165.8 160.25,172.7 C160.25,177.6 158.25,181.3 153.15,186.4 L147.25,192.5 L162.45,192.4 L159.15,203 L129.55,203 Z" id="½" fill="#000000" mask="url(#mask-2)"></path>
        </g>
    </g>
</svg>