<?xml version="1.0" encoding="UTF-8"?>
<svg width="240px" height="336px" viewBox="0 0 240 336" version="1.1" xmlns="http://www.w3.org/2000/svg" xmlns:xlink="http://www.w3.org/1999/xlink">
    <!-- Generator: Sketch 47.1 (45422) - http://www.bohemiancoding.com/sketch -->
    <title>f-idk</title>
    <desc>Created with Sketch.</desc>
    <defs>
        <rect id="path-1" x="0" y="0" width="240" height="336" rx="8"></rect>
    </defs>
    <g id="Symbols" stroke="none" stroke-width="1" fill="none" fill-rule="evenodd">
        <g id="f-idk">
            <mask id="mask-2" fill="white">
                <use xlink:href="#path-1"></use>
            </mask>
            <use id="Mask" fill="#FFFFFF" xlink:href="#path-1"></use>
            <g id="full" mask="url(#mask-2)">
                <g transform="translate(120.000000, 168.000000) rotate(180.000000) translate(-120.000000, -168.000000) translate(-0.000000, 0.000000)">
                    <g id="Background" stroke-width="1" fill="none">
                        <g id="border/blue">
                            <path d="M0,0 L240,0 L240,336 L0,336 L0,0 Z M12,12 L12,324 L228,324 L228,12 L12,12 Z" id="border" fill="#009AA6"></path>
                            <g id="Group" stroke-width="1" transform="translate(-16.000000, -16.000000)">
                                <g id="bottom-right" transform="translate(194.000000, 290.000000)">
                                    <circle id="Oval-Copy" fill="#009AA6" cx="39" cy="39" r="39"></circle>
                                    <path d="M39,69 C44.5977234,69 54.5977234,69 69,69 C69,54.4479716 69,44.4479716 69,39 C69,22.4314575 55.5685425,9 39,9 C22.4314575,9 9,22.4314575 9,39 C9,55.5685425 22.4314575,69 39,69 Z" id="Oval-Copy-3" fill="#FFFFFF"></path>
                                </g>
                                <g id="top-left" transform="translate(39.000000, 39.000000) rotate(180.000000) translate(-39.000000, -39.000000) ">
                                    <circle id="Oval-Copy" fill="#009AA6" cx="39" cy="39" r="39"></circle>
                                    <path d="M39,69 C44.5977234,69 54.5977234,69 69,69 C69,54.4479716 69,44.4479716 69,39 C69,22.4314575 55.5685425,9 39,9 C22.4314575,9 9,22.4314575 9,39 C9,55.5685425 22.4314575,69 39,69 Z" id="Oval-Copy-3" fill="#FFFFFF"></path>
                                </g>
                            </g>
                        </g>
                    </g>
                    <path d="M208.185,302.04 L208.185,306.51 L208.245,306.54 C210.435,304.62 212.355,303.63 214.425,303.63 C215.745,303.63 216.555,304.2 216.555,305.13 C216.555,306 216.045,306.45 214.365,307.32 C212.235,308.34 211.065,309.15 211.065,310.59 C211.065,311.67 211.575,312.45 212.685,313.53 L215.145,313.53 C214.815,312.84 214.695,312.48 214.695,312.06 C214.695,311.37 215.145,310.95 217.095,309.93 C219.465,308.7 220.875,307.62 220.875,304.89 C220.875,301.74 218.475,299.7 214.725,299.7 C211.905,299.7 209.925,300.66 208.185,302.04 Z M210.945,318.54 C210.945,320.04 212.175,321.3 213.705,321.3 C215.235,321.3 216.465,320.04 216.465,318.54 C216.465,317.04 215.235,315.78 213.705,315.78 C212.175,315.78 210.945,317.04 210.945,318.54 Z" id="?" fill="#000000" transform="translate(214.530000, 310.500000) rotate(180.000000) translate(-214.530000, -310.500000) "></path>
                    <path d="M19.185,17.04 L19.185,21.51 L19.245,21.54 C21.435,19.62 23.355,18.63 25.425,18.63 C26.745,18.63 27.555,19.2 27.555,20.13 C27.555,21 27.045,21.45 25.365,22.32 C23.235,23.34 22.065,24.15 22.065,25.59 C22.065,26.67 22.575,27.45 23.685,28.53 L26.145,28.53 C25.815,27.84 25.695,27.48 25.695,27.06 C25.695,26.37 26.145,25.95 28.095,24.93 C30.465,23.7 31.875,22.62 31.875,19.89 C31.875,16.74 29.475,14.7 25.725,14.7 C22.905,14.7 20.925,15.66 19.185,17.04 Z M21.945,33.54 C21.945,35.04 23.175,36.3 24.705,36.3 C26.235,36.3 27.465,35.04 27.465,33.54 C27.465,32.04 26.235,30.78 24.705,30.78 C23.175,30.78 21.945,32.04 21.945,33.54 Z" id="?" fill="#000000"></path>
                </g>
            </g>
            <path d="M93.1,132.44 L93.1,153.8 L93.34,153.8 C101.86,147.08 110.38,142.88 118.66,142.88 C122.86,142.88 125.14,144.32 125.14,146.72 C125.14,149 123.82,150.08 118.18,152.84 C109.78,156.8 104.62,160.4 104.62,166.4 C104.62,170.6 106.54,173.84 110.98,177.44 L122.98,177.44 C122.26,175.76 122.02,174.8 122.02,173.6 C122.02,171.08 123.7,169.4 131.26,165.44 C141.22,160.28 146.62,156.2 146.62,145.04 C146.62,132.56 136.66,123.8 120.34,123.8 C108.46,123.8 100.42,127.4 93.1,132.44 Z M103.54,197.48 C103.54,204.44 109.18,210.2 116.26,210.2 C123.46,210.2 128.98,204.44 128.98,197.48 C128.98,190.52 123.46,184.76 116.26,184.76 C109.18,184.76 103.54,190.52 103.54,197.48 Z" id="?" fill="#000000" mask="url(#mask-2)"></path>
        </g>
    </g>
</svg>