<?xml version="1.0" encoding="UTF-8"?>
<svg width="240px" height="336px" viewBox="0 0 240 336" version="1.1" xmlns="http://www.w3.org/2000/svg" xmlns:xlink="http://www.w3.org/1999/xlink">
    <!-- Generator: Sketch 47.1 (45422) - http://www.bohemiancoding.com/sketch -->
    <title>f-infinity</title>
    <desc>Created with Sketch.</desc>
    <defs>
        <rect id="path-1" x="0" y="0" width="240" height="336" rx="8"></rect>
    </defs>
    <g id="Symbols" stroke="none" stroke-width="1" fill="none" fill-rule="evenodd">
        <g id="f-infinity">
            <g id="Group">
                <mask id="mask-2" fill="white">
                    <use xlink:href="#path-1"></use>
                </mask>
                <use id="Mask" fill="#FFFFFF" xlink:href="#path-1"></use>
                <g mask="url(#mask-2)">
                    <g transform="translate(-16.000000, -16.000000)">
                        <g id="full" stroke-width="1" fill="none">
                            <g id="Background" transform="translate(16.000000, 16.000000)">
                                <g id="border/blue">
                                    <path d="M0,0 L240,0 L240,336 L0,336 L0,0 Z M12,12 L12,324 L228,324 L228,12 L12,12 Z" id="border" fill="#009AA6"></path>
                                    <g id="Group" stroke-width="1" transform="translate(-16.000000, -16.000000)">
                                        <g id="bottom-right" transform="translate(194.000000, 290.000000)">
                                            <circle id="Oval-Copy" fill="#009AA6" cx="39" cy="39" r="39"></circle>
                                            <path d="M39,69 C44.5977234,69 54.5977234,69 69,69 C69,54.4479716 69,44.4479716 69,39 C69,22.4314575 55.5685425,9 39,9 C22.4314575,9 9,22.4314575 9,39 C9,55.5685425 22.4314575,69 39,69 Z" id="Oval-Copy-3" fill="#FFFFFF"></path>
                                        </g>
                                        <g id="top-left" transform="translate(39.000000, 39.000000) rotate(180.000000) translate(-39.000000, -39.000000) ">
                                            <circle id="Oval-Copy" fill="#009AA6" cx="39" cy="39" r="39"></circle>
                                            <path d="M39,69 C44.5977234,69 54.5977234,69 69,69 C69,54.4479716 69,44.4479716 69,39 C69,22.4314575 55.5685425,9 39,9 C22.4314575,9 9,22.4314575 9,39 C9,55.5685425 22.4314575,69 39,69 Z" id="Oval-Copy-3" fill="#FFFFFF"></path>
                                        </g>
                                    </g>
                                </g>
                            </g>
                            <path d="M230.939453,325.691406 C232.667977,323.113268 234.469717,321.824219 236.344727,321.824219 C237.780281,321.824219 238.986323,322.405268 239.962891,323.567383 C240.939458,324.729498 241.427734,326.160148 241.427734,327.859375 C241.427734,329.851572 240.893072,331.511712 239.82373,332.839844 C238.754389,334.167975 237.423836,334.832031 235.832031,334.832031 C234.123038,334.832031 232.169933,333.640637 229.972656,331.257812 C228.458977,333.640637 226.725596,334.832031 224.772461,334.832031 C223.258781,334.832031 222.011235,334.263189 221.029785,333.125488 C220.048335,331.987787 219.557617,330.535165 219.557617,328.767578 C219.557617,326.853506 220.104487,325.215339 221.198242,323.853027 C222.291998,322.490716 223.605461,321.80957 225.138672,321.80957 C227.160166,321.80957 229.093741,323.103503 230.939453,325.691406 Z M228.229492,329.089844 C226.647453,326.980458 225.348638,325.925781 224.333008,325.925781 C223.776364,325.925781 223.317385,326.22363 222.956055,326.819336 C222.594725,327.415042 222.414062,328.17187 222.414062,329.089844 C222.414062,331.140635 223.20507,332.166016 224.787109,332.166016 C225.353518,332.166016 225.861326,331.965822 226.310547,331.56543 C226.759768,331.165037 227.39941,330.33985 228.229492,329.089844 Z M232.682617,328.005859 C234.225594,329.958994 235.50976,330.935547 236.535156,330.935547 C237.980476,330.935547 238.703125,329.846691 238.703125,327.668945 C238.703125,326.819332 238.476076,326.106448 238.021973,325.530273 C237.567869,324.954099 237.008792,324.666016 236.344727,324.666016 C235.709958,324.666016 235.155764,324.883299 234.682129,325.317871 C234.208494,325.752444 233.541996,326.648431 232.682617,328.005859 Z" id="?" fill="#000000" transform="translate(230.492676, 328.320801) rotate(180.000000) translate(-230.492676, -328.320801) "></path>
                            <path d="M41.9394531,40.6914063 C43.6679774,38.1132684 45.4697172,36.8242188 47.3447266,36.8242188 C48.7802806,36.8242188 49.9863232,37.4052676 50.9628906,38.5673828 C51.939458,39.729498 52.4277344,41.1601478 52.4277344,42.859375 C52.4277344,44.8515725 51.8930718,46.5117121 50.8237305,47.8398438 C49.7543892,49.1679754 48.4238361,49.8320313 46.8320312,49.8320313 C45.1230383,49.8320313 43.1699329,48.6406369 40.9726562,46.2578125 C39.4589768,48.6406369 37.7255957,49.8320313 35.7724609,49.8320313 C34.2587815,49.8320313 33.0112354,49.2631893 32.0297852,48.1254883 C31.0483349,46.9877873 30.5576172,45.5351651 30.5576172,43.7675781 C30.5576172,41.8535061 31.1044867,40.2153388 32.1982422,38.8530273 C33.2919977,37.4907158 34.6054611,36.8095703 36.1386719,36.8095703 C38.1601664,36.8095703 40.0937408,38.1035027 41.9394531,40.6914063 Z M39.2294922,44.0898438 C37.647453,41.9804582 36.3486379,40.9257813 35.3330078,40.9257813 C34.7763644,40.9257813 34.3173846,41.2236298 33.9560547,41.8193359 C33.5947248,42.415042 33.4140625,43.1718704 33.4140625,44.0898438 C33.4140625,46.1406353 34.2050702,47.1660156 35.7871094,47.1660156 C36.3535185,47.1660156 36.8613259,46.9658223 37.3105469,46.5654297 C37.7597679,46.1650371 38.3994099,45.33985 39.2294922,44.0898438 Z M43.6826172,43.0058594 C45.2255937,44.9589941 46.5097605,45.9355469 47.5351562,45.9355469 C48.980476,45.9355469 49.703125,44.8466906 49.703125,42.6689453 C49.703125,41.8193317 49.4760765,41.1064482 49.0219727,40.5302734 C48.5678688,39.9540987 48.0087924,39.6660156 47.3447266,39.6660156 C46.7099578,39.6660156 46.1557641,39.8832986 45.6821289,40.3178711 C45.2084937,40.7524436 44.5419965,41.6484307 43.6826172,43.0058594 Z" id="?" fill="#000000"></path>
                        </g>
                        <path d="M138.890154,167.866142 C148.137354,154.007805 157.776239,147.07874 167.8071,147.07874 C175.486977,147.07874 181.939023,150.202069 187.163429,156.448819 C192.387836,162.695569 195,170.385781 195,179.519685 C195,190.2284 192.13968,199.152195 186.418955,206.291339 C180.69823,213.430482 173.580083,217 165.0643,217 C155.921589,217 145.472932,210.595865 133.718017,197.787402 C125.620187,210.595865 116.347005,217 105.898192,217 C97.8003614,217 91.1262821,213.942288 85.8757535,207.826772 C80.6252249,201.711256 78,193.902935 78,184.401575 C78,174.112809 80.9256238,165.307123 86.7769591,157.984252 C92.6282945,150.661381 99.6550159,147 107.857334,147 C118.671856,147 129.016026,153.955311 138.890154,167.866142 Z M124.392498,186.133858 C115.92896,174.795219 108.980603,169.125984 103.54722,169.125984 C100.569309,169.125984 98.1138744,170.727018 96.1808439,173.929134 C94.2478135,177.13125 93.2813128,181.19945 93.2813128,186.133858 C93.2813128,197.157535 97.5130186,202.669291 105.976557,202.669291 C109.006713,202.669291 111.723364,201.593187 114.126591,199.440945 C116.529818,197.288703 119.951753,192.853052 124.392498,186.133858 Z M148.215673,180.307087 C156.470236,190.805827 163.340227,196.055118 168.825854,196.055118 C176.557976,196.055118 180.423979,190.202158 180.423979,178.496063 C180.423979,173.929111 179.209322,170.097128 176.779973,167 C174.350624,163.902872 171.359696,162.354331 167.8071,162.354331 C164.411236,162.354331 161.446429,163.522298 158.912592,165.858268 C156.378755,168.194237 152.813151,173.010462 148.215673,180.307087 Z" id="∞" fill="#000000"></path>
                    </g>
                </g>
            </g>
        </g>
    </g>
</svg>