<?xml version="1.0" encoding="UTF-8"?>
<svg width="240px" height="336px" viewBox="0 0 240 336" version="1.1" xmlns="http://www.w3.org/2000/svg" xmlns:xlink="http://www.w3.org/1999/xlink" style="background: #FFFFFF;">
    <!-- Generator: Sketch 47.1 (45422) - http://www.bohemiancoding.com/sketch -->
    <title>f-infinity</title>
    <desc>Created with Sketch.</desc>
    <defs>
        <polygon id="path-1" points="15 321 50.3127124 321 50.3127124 281 15 281"></polygon>
    </defs>
    <g id="Page-1" stroke="none" stroke-width="1" fill="none" fill-rule="evenodd">
        <g id="f-infinity">
            <g id="full-everythign" transform="translate(-16.000000, -16.000000)">
                <g id="Background" transform="translate(16.000000, 16.000000)">
                    <g id="border/blue">
                        <path d="M0,0 L240,0 L240,336 L0,336 L0,0 Z M12,12 L12,324 L228,324 L228,12 L12,12 Z" id="border" fill="#009AA6"></path>
                        <g id="Group" stroke-width="1" transform="translate(-16.000000, -16.000000)">
                            <g id="bottom-right" transform="translate(194.000000, 290.000000)">
                                <circle id="Oval-Copy" fill="#009AA6" cx="39" cy="39" r="39"></circle>
                                <path d="M39,69 C44.5977234,69 54.5977234,69 69,69 C69,54.4479716 69,44.4479716 69,39 C69,22.4314575 55.5685425,9 39,9 C22.4314575,9 9,22.4314575 9,39 C9,55.5685425 22.4314575,69 39,69 Z" id="Oval-Copy-3" fill="#FFFFFF"></path>
                            </g>
                            <g id="top-left" transform="translate(39.000000, 39.000000) rotate(180.000000) translate(-39.000000, -39.000000) ">
                                <circle id="Oval-Copy" fill="#009AA6" cx="39" cy="39" r="39"></circle>
                                <path d="M39,69 C44.5977234,69 54.5977234,69 69,69 C69,54.4479716 69,44.4479716 69,39 C69,22.4314575 55.5685425,9 39,9 C22.4314575,9 9,22.4314575 9,39 C9,55.5685425 22.4314575,69 39,69 Z" id="Oval-Copy-3" fill="#FFFFFF"></path>
                            </g>
                        </g>
                    </g>
                </g>
                <g id="number-1" transform="translate(194.000000, 290.000000)" font-size="30" font-family="LucidaGrande-Bold, Lucida Grande" fill="#000000" font-weight="bold">
                    <text id="?">
                        <tspan x="23.7558594" y="52">∞</tspan>
                    </text>
                </g>
                <g id="number-1-copy" transform="translate(41.500000, 41.500000) rotate(180.000000) translate(-41.500000, -41.500000) translate(17.000000, 28.000000)" font-size="30" font-family="LucidaGrande-Bold, Lucida Grande" fill="#000000" font-weight="bold">
                    <text id="?">
                        <tspan x="11.7558594" y="29">∞</tspan>
                    </text>
                </g>
            </g>
            <path d="M122.890154,151.866142 C132.137354,138.007805 141.776239,131.07874 151.8071,131.07874 C159.486977,131.07874 165.939023,134.202069 171.163429,140.448819 C176.387836,146.695569 179,154.385781 179,163.519685 C179,174.2284 176.13968,183.152195 170.418955,190.291339 C164.69823,197.430482 157.580083,201 149.0643,201 C139.921589,201 129.472932,194.595865 117.718017,181.787402 C109.620187,194.595865 100.347005,201 89.8981916,201 C81.8003614,201 75.1262821,197.942288 69.8757535,191.826772 C64.6252249,185.711256 62,177.902935 62,168.401575 C62,158.112809 64.9256238,149.307123 70.7769591,141.984252 C76.6282945,134.661381 83.6550159,131 91.8573342,131 C102.671856,131 113.016026,137.955311 122.890154,151.866142 Z M108.392498,170.133858 C99.9289597,158.795219 92.9806032,153.125984 87.5472204,153.125984 C84.5693086,153.125984 82.1138744,154.727018 80.1808439,157.929134 C78.2478135,161.13125 77.2813128,165.19945 77.2813128,170.133858 C77.2813128,181.157535 81.5130186,186.669291 89.9765573,186.669291 C93.0067131,186.669291 95.7233637,185.593187 98.1265908,183.440945 C100.529818,181.288703 103.951753,176.853052 108.392498,170.133858 Z M132.215673,164.307087 C140.470236,174.805827 147.340227,180.055118 152.825854,180.055118 C160.557976,180.055118 164.423979,174.202158 164.423979,162.496063 C164.423979,157.929111 163.209322,154.097128 160.779973,151 C158.350624,147.902872 155.359696,146.354331 151.8071,146.354331 C148.411236,146.354331 145.446429,147.522298 142.912592,149.858268 C140.378755,152.194237 136.813151,157.010462 132.215673,164.307087 Z" id="∞" fill="#000000"></path>
            <mask id="mask-2" fill="white">
                <use xlink:href="#path-1"></use>
            </mask>
            <g id="Clip-2"></g>
        </g>
    </g>
</svg>